# Blender v2.72 (sub 0) OBJ File: 'piece_gears.blend'
# www.blender.org
o Circle
v 0.000000 0.000000 -0.715111
v -0.619304 0.000000 -0.357556
v -0.619304 0.000000 0.357556
v 0.000000 0.000000 0.715111
v 0.619304 0.000000 0.357556
v 0.619304 0.000000 -0.357556
v 0.000000 0.111000 -0.715111
v -0.619304 0.111000 -0.357556
v -0.619304 0.111000 0.357556
v 0.000000 0.111000 0.715111
v 0.619304 0.111000 0.357556
v 0.619304 0.111000 -0.357556
v 0.000000 0.111000 -0.437306
v -0.378718 0.111000 -0.218653
v -0.378718 0.111000 0.218653
v 0.000000 0.111000 0.437306
v 0.378718 0.111000 0.218653
v 0.378718 0.111000 -0.218653
v 0.000000 0.215317 -0.437306
v -0.378718 0.215317 -0.218653
v -0.378718 0.215317 0.218653
v 0.000000 0.215317 0.437306
v 0.378718 0.215317 0.218653
v 0.378718 0.215317 -0.218653
vn 0.000000 -1.000000 0.000000
vn 0.000000 1.000000 0.000000
vn 0.500000 0.000000 -0.866000
vn 1.000000 0.000000 0.000000
vn 0.500000 0.000000 0.866000
vn -0.500000 0.000000 0.866000
vn -1.000000 0.000000 0.000000
vn -0.500000 0.000000 -0.866000
s off
f 2//1 1//1 6//1
f 7//2 13//2 18//2
f 1//3 7//3 12//3
f 6//4 12//4 11//4
f 5//5 11//5 10//5
f 4//6 10//6 9//6
f 3//7 9//7 8//7
f 2//8 8//8 7//8
f 13//3 19//3 24//3
f 12//2 18//2 17//2
f 10//2 11//2 17//2
f 10//2 16//2 15//2
f 8//2 9//2 15//2
f 8//2 14//2 13//2
f 20//2 21//2 22//2
f 18//4 24//4 23//4
f 17//5 23//5 22//5
f 16//6 22//6 21//6
f 15//7 21//7 20//7
f 14//8 20//8 19//8
f 4//1 3//1 2//1
f 6//1 5//1 4//1
f 12//2 7//2 18//2
f 2//1 6//1 4//1
f 6//3 1//3 12//3
f 5//4 6//4 11//4
f 4//5 5//5 10//5
f 3//6 4//6 9//6
f 2//7 3//7 8//7
f 1//8 2//8 7//8
f 18//3 13//3 24//3
f 11//2 12//2 17//2
f 16//2 10//2 17//2
f 9//2 10//2 15//2
f 14//2 8//2 15//2
f 7//2 8//2 13//2
f 24//2 19//2 20//2
f 22//2 23//2 24//2
f 17//4 18//4 23//4
f 20//2 22//2 24//2
f 16//5 17//5 22//5
f 15//6 16//6 21//6
f 14//7 15//7 20//7
f 13//8 14//8 19//8
