# Blender v2.72 (sub 0) OBJ File: 'piece_gears.blend'
# www.blender.org
v 0.000000 0.466627 -0.496915
v -0.086288 0.466627 -0.489366
v -0.127759 0.466627 -0.351015
v -0.186771 0.466627 -0.323497
v -0.319411 0.466627 -0.380659
v -0.380659 0.466627 -0.319411
v -0.323497 0.466627 -0.186771
v -0.351015 0.466627 -0.127759
v -0.489366 0.466627 -0.086289
v -0.496915 0.466627 -0.000000
v -0.367868 0.466627 0.064865
v -0.351015 0.466627 0.127759
v -0.430341 0.466627 0.248458
v -0.380659 0.466627 0.319411
v -0.240109 0.466627 0.286150
v -0.186771 0.466627 0.323497
v -0.169955 0.466627 0.466948
v -0.086289 0.466627 0.489366
v -0.000000 0.466627 0.373543
v 0.064865 0.466627 0.367868
v 0.169955 0.466627 0.466948
v 0.248458 0.466627 0.430342
v 0.240108 0.466627 0.286150
v 0.286150 0.466627 0.240109
v 0.430341 0.466627 0.248458
v 0.466948 0.466627 0.169955
v 0.367868 0.466627 0.064865
v 0.373543 0.466627 0.000000
v 0.489366 0.466627 -0.086288
v 0.466948 0.466627 -0.169955
v 0.323498 0.466627 -0.186771
v 0.286150 0.466627 -0.240108
v 0.319411 0.466627 -0.380659
v 0.248458 0.466627 -0.430341
v 0.127759 0.466627 -0.351015
v 0.064865 0.466627 -0.367868
v 0.240480 0.466627 -0.138845
v 0.260936 0.466627 -0.094972
v 0.273464 0.466628 -0.048219
v 0.277683 0.466627 -0.000003
v 0.273464 0.466627 0.048217
v 0.260936 0.466627 0.094969
v 0.240479 0.466627 0.138840
v 0.212716 0.466627 0.178490
v 0.178490 0.466628 0.212716
v 0.138841 0.466627 0.240479
v 0.094973 0.466627 0.260935
v 0.048220 0.466628 0.273462
v 0.000001 0.466627 0.277681
v -0.048218 0.466628 0.273462
v -0.094972 0.466628 0.260935
v -0.138840 0.466627 0.240479
v -0.178489 0.466627 0.212716
v -0.212715 0.466627 0.178491
v -0.240477 0.466627 0.138839
v -0.260934 0.466627 0.094969
v -0.273462 0.466628 0.048217
v -0.277680 0.466627 -0.000003
v -0.273462 0.466628 -0.048219
v -0.260934 0.466627 -0.094975
v -0.240478 0.466628 -0.138845
v -0.212715 0.466628 -0.178489
v -0.178489 0.466627 -0.212718
v -0.138839 0.466627 -0.240476
v -0.094972 0.466627 -0.260936
v -0.048218 0.466627 -0.273459
v 0.000001 0.466627 -0.277681
v 0.048220 0.466627 -0.273459
v 0.094973 0.466627 -0.260936
v 0.138841 0.466627 -0.240476
v 0.178491 0.466627 -0.212718
v 0.212717 0.466627 -0.178489
v 0.000000 0.529363 -0.496915
v -0.086288 0.529363 -0.489366
v -0.127759 0.529363 -0.351015
v -0.186771 0.529363 -0.323497
v -0.319411 0.529363 -0.380659
v -0.380659 0.529363 -0.319411
v -0.323497 0.529363 -0.186771
v -0.351015 0.529363 -0.127759
v -0.489366 0.529363 -0.086289
v -0.496915 0.529363 -0.000000
v -0.367868 0.529363 0.064865
v -0.351015 0.529363 0.127759
v -0.430341 0.529363 0.248458
v -0.380659 0.529363 0.319411
v -0.240109 0.529363 0.286150
v -0.186771 0.529363 0.323497
v -0.169955 0.529363 0.466948
v -0.086289 0.529363 0.489366
v -0.000000 0.529363 0.373543
v 0.064865 0.529363 0.367868
v 0.169955 0.529363 0.466948
v 0.248458 0.529363 0.430342
v 0.240108 0.529363 0.286150
v 0.286150 0.529363 0.240109
v 0.430341 0.529363 0.248458
v 0.466948 0.529363 0.169955
v 0.367868 0.529363 0.064865
v 0.373543 0.529363 0.000000
v 0.489366 0.529363 -0.086288
v 0.466948 0.529363 -0.169955
v 0.323498 0.529363 -0.186771
v 0.286150 0.529363 -0.240108
v 0.319411 0.529363 -0.380659
v 0.248458 0.529363 -0.430341
v 0.127759 0.529363 -0.351015
v 0.064865 0.529363 -0.367868
v 0.240480 0.529363 -0.138845
v 0.260936 0.529363 -0.094972
v 0.273464 0.529363 -0.048219
v 0.277683 0.529363 -0.000003
v 0.273464 0.529363 0.048217
v 0.260936 0.529363 0.094969
v 0.240479 0.529363 0.138840
v 0.212716 0.529363 0.178490
v 0.178490 0.529363 0.212716
v 0.138841 0.529363 0.240479
v 0.094973 0.529363 0.260935
v 0.048220 0.529363 0.273462
v 0.000001 0.529363 0.277681
v -0.048218 0.529363 0.273462
v -0.094972 0.529363 0.260935
v -0.138840 0.529363 0.240479
v -0.178489 0.529363 0.212716
v -0.212715 0.529363 0.178491
v -0.240477 0.529363 0.138839
v -0.260934 0.529363 0.094969
v -0.273462 0.529363 0.048217
v -0.277680 0.529363 -0.000003
v -0.273462 0.529363 -0.048219
v -0.260934 0.529363 -0.094975
v -0.240478 0.529363 -0.138845
v -0.212715 0.529363 -0.178489
v -0.178489 0.529363 -0.212718
v -0.138839 0.529363 -0.240476
v -0.094972 0.529363 -0.260936
v -0.048218 0.529363 -0.273459
v 0.000001 0.529363 -0.277681
v 0.048220 0.529363 -0.273459
v 0.094973 0.529363 -0.260936
v 0.138841 0.529363 -0.240476
v 0.178491 0.529363 -0.212718
v 0.212717 0.529363 -0.178489
vn 0.000000 -1.000000 -0.000000
vn -0.000000 1.000000 0.000000
vn 0.965900 0.000000 0.258800
vn -0.057800 0.000000 0.998300
vn -0.957900 0.000000 -0.287100
vn -0.965900 0.000000 0.258800
vn 0.707100 0.000000 -0.707100
vn -0.258800 0.000000 0.965900
vn -0.087200 0.000000 0.996200
vn 0.973100 0.000000 0.230300
vn -0.449100 0.000000 0.893500
vn -0.422600 0.000000 -0.906300
vn 0.906300 0.000000 0.422600
vn -0.996200 0.000000 0.087200
vn 0.819200 0.000000 -0.573600
vn 0.801900 0.000000 0.597400
vn -0.258700 0.000000 0.965900
vn 0.573600 0.000000 -0.819200
vn -0.258800 0.000000 -0.965900
vn 0.819100 0.000000 0.573600
vn 0.727600 0.000000 -0.686000
vn -0.996200 0.000000 -0.087200
vn 0.395800 0.000000 -0.918400
vn 0.087200 0.000000 0.996200
vn -0.422700 0.000000 0.906300
vn -0.549200 0.000000 -0.835700
vn -0.835700 0.000000 -0.549200
vn -0.087200 0.000000 -0.996200
vn 0.707100 0.000000 0.707100
vn 0.996200 0.000000 0.087200
vn -0.707100 0.000000 -0.707100
vn -0.965900 0.000000 -0.258800
vn 0.906300 0.000000 -0.422600
vn -0.686000 0.000000 0.727600
vn -0.573500 0.000000 0.819200
vn 0.258800 0.000000 -0.965900
vn -0.819200 0.000000 0.573600
vn 0.087200 0.000000 -0.996200
vn 0.573500 0.000000 0.819200
vn 0.597400 0.000000 0.801900
vn -0.918400 0.000000 0.395800
vn -0.906300 0.000000 -0.422600
vn 0.965900 0.000000 -0.258800
vn 0.422600 0.000000 0.906300
vn -0.707100 0.000000 0.707100
vn 0.893500 0.000000 -0.449100
vn 0.230300 0.000000 0.973100
vn 0.422700 0.000000 0.906300
vn -0.819200 0.000000 -0.573600
vn 0.996200 0.000000 -0.087200
vn 0.998300 0.000000 -0.057800
vn -0.819100 0.000000 0.573600
vn -0.573600 0.000000 0.819200
vn 0.422600 0.000000 -0.906300
vn 0.258700 0.000000 0.965900
vn 0.116400 0.000000 -0.993200
vn -0.287100 0.000000 -0.957900
vn -0.906300 0.000000 0.422600
vn -0.993200 0.000000 0.116400
vn 0.573600 0.000000 -0.819100
vn -0.573600 0.000000 -0.819100
vn 0.087100 0.000000 -0.996200
s off
f 46//1 45//1 23//1
f 64//1 4//1 65//1
f 120//2 121//2 92//2
f 79//2 135//2 76//2
f 60//3 132//3 131//3
f 25//4 97//4 96//4
f 3//5 75//5 74//5
f 38//6 39//6 111//6
f 54//7 126//7 125//7
f 18//8 90//8 89//8
f 67//9 68//9 140//9
f 33//10 105//10 104//10
f 11//11 83//11 82//11
f 47//12 119//12 118//12
f 60//13 61//13 133//13
f 26//13 98//13 97//13
f 4//12 76//12 75//12
f 40//14 112//14 111//14
f 55//15 127//15 126//15
f 19//16 91//16 90//16
f 69//17 141//17 140//17
f 34//18 106//18 105//18
f 47//19 48//19 120//19
f 12//6 84//6 83//6
f 62//20 134//20 133//20
f 27//21 99//21 98//21
f 40//22 41//22 113//22
f 5//23 77//23 76//23
f 20//24 92//24 91//24
f 70//25 142//25 141//25
f 35//26 107//26 106//26
f 13//27 85//27 84//27
f 49//28 121//28 120//28
f 63//29 135//29 134//29
f 28//30 100//30 99//30
f 6//31 78//31 77//31
f 42//32 114//32 113//32
f 56//33 128//33 127//33
f 21//34 93//34 92//34
f 71//35 143//35 142//35
f 36//36 108//36 107//36
f 14//37 86//37 85//37
f 49//38 50//38 122//38
f 63//39 64//39 136//39
f 29//40 101//40 100//40
f 7//41 79//41 78//41
f 43//42 115//42 114//42
f 56//43 57//43 129//43
f 22//44 94//44 93//44
f 72//45 144//45 143//45
f 1//46 73//46 108//46
f 15//47 87//47 86//47
f 51//36 123//36 122//36
f 65//48 137//48 136//48
f 30//43 102//43 101//43
f 8//42 80//42 79//42
f 44//49 116//49 115//49
f 58//50 130//50 129//50
f 23//51 95//51 94//51
f 37//52 109//52 144//52
f 16//53 88//53 87//53
f 52//54 124//54 123//54
f 65//55 66//55 138//55
f 31//56 103//56 102//56
f 9//57 81//57 80//57
f 44//31 45//31 117//31
f 58//30 59//30 131//30
f 24//29 96//29 95//29
f 2//28 74//28 73//28
f 38//58 110//58 109//58
f 17//59 89//59 88//59
f 53//60 125//60 124//60
f 67//24 139//24 138//24
f 32//15 104//15 103//15
f 10//22 82//22 81//22
f 46//61 118//61 117//61
f 38//1 37//1 31//1
f 12//1 55//1 54//1
f 39//1 38//1 31//1
f 53//1 15//1 54//1
f 30//1 28//1 31//1
f 52//1 16//1 53//1
f 43//1 27//1 24//1
f 23//1 45//1 44//1
f 16//1 51//1 19//1
f 51//1 16//1 52//1
f 28//1 40//1 39//1
f 20//1 19//1 49//1
f 28//1 41//1 40//1
f 50//1 49//1 19//1
f 28//1 27//1 41//1
f 15//1 14//1 13//1
f 30//1 29//1 28//1
f 15//1 13//1 12//1
f 28//1 39//1 31//1
f 27//1 26//1 25//1
f 27//1 43//1 42//1
f 48//1 20//1 49//1
f 44//1 43//1 24//1
f 51//1 50//1 19//1
f 3//1 2//1 1//1
f 47//1 20//1 48//1
f 24//1 23//1 44//1
f 47//1 46//1 23//1
f 19//1 18//1 17//1
f 22//1 21//1 20//1
f 19//1 17//1 16//1
f 23//1 22//1 20//1
f 54//1 15//1 12//1
f 24//1 27//1 25//1
f 20//1 47//1 23//1
f 16//1 15//1 53//1
f 6//1 5//1 4//1
f 27//1 42//1 41//1
f 7//1 6//1 4//1
f 3//1 1//1 36//1
f 56//1 55//1 12//1
f 10//1 9//1 8//1
f 4//1 63//1 7//1
f 35//1 69//1 36//1
f 33//1 32//1 34//1
f 32//1 31//1 37//1
f 97//2 98//2 99//2
f 11//1 10//1 8//1
f 36//1 68//1 67//1
f 8//1 60//1 59//1
f 11//1 56//1 12//1
f 32//1 37//1 72//1
f 63//1 62//1 7//1
f 32//1 72//1 71//1
f 57//1 56//1 11//1
f 70//1 35//1 71//1
f 58//1 57//1 11//1
f 69//1 35//1 70//1
f 11//1 8//1 58//1
f 4//1 3//1 65//1
f 32//1 35//1 34//1
f 61//1 60//1 7//1
f 69//1 68//1 36//1
f 3//1 36//1 67//1
f 8//1 59//1 58//1
f 3//1 67//1 66//1
f 61//1 7//1 62//1
f 3//1 66//1 65//1
f 60//1 8//1 7//1
f 101//2 102//2 103//2
f 63//1 4//1 64//1
f 35//1 32//1 71//1
f 100//2 101//2 103//2
f 96//2 97//2 99//2
f 100//2 103//2 111//2
f 103//2 109//2 110//2
f 126//2 127//2 84//2
f 103//2 110//2 111//2
f 85//2 87//2 84//2
f 112//2 100//2 111//2
f 122//2 123//2 91//2
f 113//2 100//2 112//2
f 88//2 124//2 125//2
f 95//2 96//2 116//2
f 87//2 125//2 126//2
f 99//2 113//2 114//2
f 87//2 88//2 125//2
f 99//2 114//2 115//2
f 107//2 104//2 106//2
f 116//2 96//2 115//2
f 85//2 86//2 87//2
f 117//2 95//2 116//2
f 87//2 126//2 84//2
f 96//2 99//2 115//2
f 121//2 91//2 92//2
f 118//2 95//2 117//2
f 121//2 122//2 91//2
f 119//2 95//2 118//2
f 89//2 91//2 88//2
f 123//2 88//2 91//2
f 93//2 94//2 95//2
f 119//2 120//2 92//2
f 90//2 91//2 89//2
f 92//2 93//2 95//2
f 88//2 123//2 124//2
f 95//2 119//2 92//2
f 113//2 99//2 100//2
f 74//2 75//2 73//2
f 104//2 105//2 106//2
f 24//4 25//4 96//4
f 138//2 139//2 75//2
f 76//2 77//2 78//2
f 76//2 137//2 75//2
f 142//2 143//2 107//2
f 103//2 104//2 109//2
f 84//2 127//2 128//2
f 108//2 140//2 141//2
f 129//2 83//2 128//2
f 108//2 139//2 140//2
f 130//2 83//2 129//2
f 139//2 108//2 75//2
f 131//2 80//2 130//2
f 75//2 137//2 138//2
f 143//2 104//2 107//2
f 107//2 108//2 141//2
f 132//2 80//2 131//2
f 79//2 80//2 132//2
f 133//2 79//2 132//2
f 75//2 108//2 73//2
f 80//2 83//2 130//2
f 59//3 60//3 131//3
f 134//2 79//2 133//2
f 107//2 141//2 142//2
f 135//2 79//2 134//2
f 136//2 137//2 76//2
f 135//2 136//2 76//2
f 80//2 81//2 82//2
f 76//2 78//2 79//2
f 80//2 82//2 83//2
f 83//2 84//2 128//2
f 104//2 144//2 109//2
f 104//2 143//2 144//2
f 2//5 3//5 74//5
f 110//6 38//6 111//6
f 53//7 54//7 125//7
f 17//8 18//8 89//8
f 139//9 67//9 140//9
f 32//10 33//10 104//10
f 10//11 11//11 82//11
f 46//12 47//12 118//12
f 132//13 60//13 133//13
f 25//13 26//13 97//13
f 3//12 4//12 75//12
f 39//14 40//14 111//14
f 54//15 55//15 126//15
f 18//16 19//16 90//16
f 68//17 69//17 140//17
f 33//18 34//18 105//18
f 119//19 47//19 120//19
f 11//6 12//6 83//6
f 61//20 62//20 133//20
f 26//21 27//21 98//21
f 112//22 40//22 113//22
f 4//23 5//23 76//23
f 19//24 20//24 91//24
f 69//25 70//25 141//25
f 34//26 35//26 106//26
f 12//27 13//27 84//27
f 48//28 49//28 120//28
f 62//29 63//29 134//29
f 27//30 28//30 99//30
f 5//31 6//31 77//31
f 41//32 42//32 113//32
f 55//33 56//33 127//33
f 20//34 21//34 92//34
f 70//35 71//35 142//35
f 35//36 36//36 107//36
f 13//37 14//37 85//37
f 121//62 49//62 122//62
f 135//39 63//39 136//39
f 28//40 29//40 100//40
f 6//41 7//41 78//41
f 42//42 43//42 114//42
f 128//43 56//43 129//43
f 21//44 22//44 93//44
f 71//45 72//45 143//45
f 36//46 1//46 108//46
f 14//47 15//47 86//47
f 50//36 51//36 122//36
f 64//48 65//48 136//48
f 29//43 30//43 101//43
f 7//42 8//42 79//42
f 43//49 44//49 115//49
f 57//50 58//50 129//50
f 22//51 23//51 94//51
f 72//52 37//52 144//52
f 15//53 16//53 87//53
f 51//54 52//54 123//54
f 137//55 65//55 138//55
f 30//56 31//56 102//56
f 8//57 9//57 80//57
f 116//31 44//31 117//31
f 130//30 58//30 131//30
f 23//29 24//29 95//29
f 1//28 2//28 73//28
f 37//58 38//58 109//58
f 16//59 17//59 88//59
f 52//60 53//60 124//60
f 66//24 67//24 138//24
f 31//15 32//15 103//15
f 9//22 10//22 81//22
f 45//61 46//61 117//61
