# Blender v2.72 (sub 0) OBJ File: 'piece_gears.blend'
# www.blender.org
v 0.000000 0.004108 -0.640028
v 0.000000 0.124447 -0.640028
v 0.124863 0.004108 -0.627730
v 0.124863 0.124447 -0.627730
v 0.244928 0.004108 -0.591309
v 0.244928 0.124447 -0.591309
v 0.355580 0.004108 -0.532164
v 0.355580 0.124447 -0.532164
v 0.452568 0.004108 -0.452568
v 0.452568 0.124447 -0.452568
v 0.532164 0.004108 -0.355580
v 0.532164 0.124447 -0.355580
v 0.591309 0.004108 -0.244928
v 0.591309 0.124447 -0.244928
v 0.627730 0.004108 -0.124863
v 0.627730 0.124447 -0.124863
v 0.640028 0.004108 -0.000000
v 0.640028 0.124447 -0.000000
v 0.627730 0.004108 0.124863
v 0.627730 0.124447 0.124863
v 0.591309 0.004108 0.244928
v 0.591309 0.124447 0.244928
v 0.532164 0.004108 0.355580
v 0.532164 0.124447 0.355580
v 0.452568 0.004108 0.452568
v 0.452568 0.124447 0.452568
v 0.355580 0.004108 0.532164
v 0.355580 0.124447 0.532164
v 0.244928 0.004108 0.591309
v 0.244928 0.124447 0.591309
v 0.124863 0.004108 0.627730
v 0.124863 0.124447 0.627730
v -0.000000 0.004108 0.640028
v -0.000000 0.124447 0.640028
v -0.124864 0.004108 0.627730
v -0.124864 0.124447 0.627730
v -0.244928 0.004108 0.591309
v -0.244928 0.124447 0.591309
v -0.355581 0.004108 0.532164
v -0.355581 0.124447 0.532164
v -0.452568 0.004108 0.452568
v -0.452568 0.124447 0.452568
v -0.532164 0.004108 0.355580
v -0.532164 0.124447 0.355580
v -0.591309 0.004108 0.244928
v -0.591309 0.124447 0.244928
v -0.627730 0.004108 0.124863
v -0.627730 0.124447 0.124863
v -0.640028 0.004108 -0.000001
v -0.640028 0.124447 -0.000001
v -0.627730 0.004108 -0.124864
v -0.627730 0.124447 -0.124864
v -0.591308 0.004108 -0.244929
v -0.591308 0.124447 -0.244929
v -0.532163 0.004108 -0.355581
v -0.532163 0.124447 -0.355581
v -0.452568 0.004108 -0.452569
v -0.452568 0.124447 -0.452569
v -0.355580 0.004108 -0.532164
v -0.355580 0.124447 -0.532164
v -0.244927 0.004108 -0.591309
v -0.244927 0.124447 -0.591309
v -0.124862 0.004108 -0.627730
v -0.124862 0.124447 -0.627730
v 0.000000 0.124447 -0.418538
v 0.081653 0.124447 -0.410496
v 0.160168 0.124447 -0.386679
v 0.232527 0.124447 -0.348002
v 0.295951 0.124447 -0.295951
v 0.348002 0.124447 -0.232527
v 0.386679 0.124447 -0.160168
v 0.410496 0.124447 -0.081653
v 0.418538 0.124447 -0.000000
v 0.410496 0.124447 0.081653
v 0.386679 0.124447 0.160167
v 0.348002 0.124447 0.232527
v 0.295951 0.124447 0.295951
v 0.232527 0.124447 0.348001
v 0.160167 0.124447 0.386679
v 0.081653 0.124447 0.410496
v -0.000000 0.124447 0.418538
v -0.081653 0.124447 0.410496
v -0.160168 0.124447 0.386678
v -0.232527 0.124447 0.348001
v -0.295951 0.124447 0.295951
v -0.348002 0.124447 0.232527
v -0.386679 0.124447 0.160167
v -0.410496 0.124447 0.081652
v -0.418538 0.124447 -0.000000
v -0.410496 0.124447 -0.081653
v -0.386678 0.124447 -0.160168
v -0.348001 0.124447 -0.232528
v -0.295951 0.124447 -0.295951
v -0.232527 0.124447 -0.348002
v -0.160167 0.124447 -0.386679
v -0.081652 0.124447 -0.410496
v 0.000000 0.215561 -0.418538
v 0.081653 0.215561 -0.410496
v 0.160168 0.215561 -0.386679
v 0.232527 0.215561 -0.348002
v 0.295951 0.215561 -0.295951
v 0.348002 0.215561 -0.232527
v 0.386679 0.215561 -0.160168
v 0.410496 0.215561 -0.081653
v 0.418538 0.215561 -0.000000
v 0.410496 0.215561 0.081653
v 0.386679 0.215561 0.160167
v 0.348002 0.215561 0.232527
v 0.295951 0.215561 0.295951
v 0.232527 0.215561 0.348001
v 0.160167 0.215561 0.386679
v 0.081653 0.215561 0.410496
v -0.000000 0.215561 0.418538
v -0.081653 0.215561 0.410496
v -0.160168 0.215561 0.386678
v -0.232527 0.215561 0.348001
v -0.295951 0.215561 0.295951
v -0.348002 0.215561 0.232527
v -0.386679 0.215561 0.160167
v -0.410496 0.215561 0.081652
v -0.418538 0.215561 -0.000000
v -0.410496 0.215561 -0.081653
v -0.386678 0.215561 -0.160168
v -0.348001 0.215561 -0.232528
v -0.295951 0.215561 -0.295951
v -0.232527 0.215561 -0.348002
v -0.160167 0.215561 -0.386679
v -0.081652 0.215561 -0.410496
vn 0.098000 0.000000 -0.995200
vn 0.290300 0.000000 -0.956900
vn 0.471400 0.000000 -0.881900
vn 0.634400 0.000000 -0.773000
vn 0.773000 0.000000 -0.634400
vn 0.881900 0.000000 -0.471400
vn 0.956900 0.000000 -0.290300
vn 0.995200 0.000000 -0.098000
vn 0.995200 0.000000 0.098000
vn 0.956900 0.000000 0.290300
vn 0.881900 0.000000 0.471400
vn 0.773000 0.000000 0.634400
vn 0.634400 0.000000 0.773000
vn 0.471400 0.000000 0.881900
vn 0.290300 0.000000 0.956900
vn 0.098000 0.000000 0.995200
vn -0.098000 0.000000 0.995200
vn -0.290300 0.000000 0.956900
vn -0.471400 0.000000 0.881900
vn -0.634400 0.000000 0.773000
vn -0.773000 0.000000 0.634400
vn -0.881900 0.000000 0.471400
vn -0.956900 0.000000 0.290300
vn -0.995200 0.000000 0.098000
vn -0.995200 0.000000 -0.098000
vn -0.956900 0.000000 -0.290300
vn -0.881900 0.000000 -0.471400
vn -0.773000 0.000000 -0.634400
vn -0.634400 0.000000 -0.773000
vn -0.471400 0.000000 -0.881900
vn 0.000000 1.000000 0.000000
vn -0.098000 0.000000 -0.995200
vn -0.290300 0.000000 -0.956900
vn 0.000000 -1.000000 0.000000
s off
f 2//1 4//1 3//1
f 4//2 6//2 5//2
f 6//3 8//3 7//3
f 8//4 10//4 9//4
f 10//5 12//5 11//5
f 12//6 14//6 13//6
f 14//7 16//7 15//7
f 16//8 18//8 17//8
f 18//9 20//9 19//9
f 20//10 22//10 21//10
f 22//11 24//11 23//11
f 24//12 26//12 25//12
f 26//13 28//13 27//13
f 28//14 30//14 29//14
f 30//15 32//15 31//15
f 32//16 34//16 33//16
f 34//17 36//17 35//17
f 36//18 38//18 37//18
f 38//19 40//19 39//19
f 40//20 42//20 41//20
f 42//21 44//21 43//21
f 44//22 46//22 45//22
f 46//23 48//23 47//23
f 48//24 50//24 49//24
f 50//25 52//25 51//25
f 52//26 54//26 53//26
f 54//27 56//27 55//27
f 56//28 58//28 57//28
f 58//29 60//29 59//29
f 60//30 62//30 61//30
f 60//31 94//31 95//31
f 64//32 2//32 1//32
f 62//33 64//33 63//33
f 1//34 17//34 49//34
f 91//27 123//27 124//27
f 38//31 83//31 84//31
f 2//31 65//31 66//31
f 18//31 16//31 72//31
f 44//31 86//31 87//31
f 24//31 22//31 75//31
f 50//31 89//31 90//31
f 6//31 67//31 68//31
f 30//31 28//31 78//31
f 56//31 92//31 93//31
f 34//31 81//31 82//31
f 12//31 70//31 71//31
f 62//31 95//31 96//31
f 40//31 84//31 85//31
f 20//31 18//31 73//31
f 46//31 87//31 88//31
f 26//31 24//31 76//31
f 52//31 90//31 91//31
f 8//31 68//31 69//31
f 30//31 79//31 80//31
f 58//31 93//31 94//31
f 36//31 82//31 83//31
f 16//31 14//31 71//31
f 2//31 64//31 96//31
f 42//31 85//31 86//31
f 20//31 74//31 75//31
f 48//31 88//31 89//31
f 6//31 4//31 66//31
f 28//31 26//31 77//31
f 54//31 91//31 92//31
f 12//31 10//31 69//31
f 34//31 32//31 80//31
f 114//31 98//31 126//31
f 69//5 101//5 102//5
f 80//16 112//16 113//16
f 89//25 121//25 122//25
f 67//3 99//3 100//3
f 78//14 110//14 111//14
f 87//23 119//23 120//23
f 65//1 97//1 98//1
f 76//12 108//12 109//12
f 96//32 128//32 97//32
f 85//21 117//21 118//21
f 74//10 106//10 107//10
f 94//30 126//30 127//30
f 83//19 115//19 116//19
f 72//8 104//8 105//8
f 92//28 124//28 125//28
f 81//17 113//17 114//17
f 70//6 102//6 103//6
f 90//26 122//26 123//26
f 68//4 100//4 101//4
f 79//15 111//15 112//15
f 88//24 120//24 121//24
f 66//2 98//2 99//2
f 77//13 109//13 110//13
f 86//22 118//22 119//22
f 75//11 107//11 108//11
f 95//33 127//33 128//33
f 84//20 116//20 117//20
f 74//9 73//9 105//9
f 93//29 125//29 126//29
f 82//18 114//18 115//18
f 71//7 103//7 104//7
f 1//1 2//1 3//1
f 3//2 4//2 5//2
f 5//3 6//3 7//3
f 7//4 8//4 9//4
f 9//5 10//5 11//5
f 11//6 12//6 13//6
f 13//7 14//7 15//7
f 15//8 16//8 17//8
f 17//9 18//9 19//9
f 19//10 20//10 21//10
f 21//11 22//11 23//11
f 23//12 24//12 25//12
f 25//13 26//13 27//13
f 27//14 28//14 29//14
f 29//15 30//15 31//15
f 31//16 32//16 33//16
f 33//17 34//17 35//17
f 35//18 36//18 37//18
f 37//19 38//19 39//19
f 39//20 40//20 41//20
f 41//21 42//21 43//21
f 43//22 44//22 45//22
f 45//23 46//23 47//23
f 47//24 48//24 49//24
f 49//25 50//25 51//25
f 51//26 52//26 53//26
f 53//27 54//27 55//27
f 55//28 56//28 57//28
f 57//29 58//29 59//29
f 59//30 60//30 61//30
f 62//31 60//31 95//31
f 63//32 64//32 1//32
f 61//33 62//33 63//33
f 1//34 57//34 63//34
f 57//34 59//34 61//34
f 53//34 55//34 57//34
f 49//34 51//34 53//34
f 49//34 31//34 47//34
f 45//34 47//34 43//34
f 25//34 29//34 31//34
f 33//34 35//34 37//34
f 31//34 37//34 47//34
f 25//34 27//34 29//34
f 21//34 23//34 25//34
f 17//34 19//34 21//34
f 13//34 15//34 17//34
f 13//34 3//34 11//34
f 5//34 7//34 9//34
f 5//34 9//34 3//34
f 31//34 33//34 37//34
f 57//34 1//34 53//34
f 47//34 41//34 43//34
f 31//34 17//34 21//34
f 37//34 39//34 47//34
f 25//34 31//34 21//34
f 17//34 3//34 13//34
f 1//34 49//34 53//34
f 40//31 38//31 84//31
f 39//34 41//34 47//34
f 3//34 9//34 11//34
f 1//34 3//34 17//34
f 92//27 91//27 124//27
f 57//34 61//34 63//34
f 17//34 31//34 49//34
f 4//31 2//31 66//31
f 73//31 18//31 72//31
f 46//31 44//31 87//31
f 76//31 24//31 75//31
f 52//31 50//31 90//31
f 8//31 6//31 68//31
f 79//31 30//31 78//31
f 58//31 56//31 93//31
f 36//31 34//31 82//31
f 14//31 12//31 71//31
f 64//31 62//31 96//31
f 42//31 40//31 85//31
f 74//31 20//31 73//31
f 48//31 46//31 88//31
f 77//31 26//31 76//31
f 54//31 52//31 91//31
f 10//31 8//31 69//31
f 32//31 30//31 80//31
f 60//31 58//31 94//31
f 38//31 36//31 83//31
f 72//31 16//31 71//31
f 65//31 2//31 96//31
f 44//31 42//31 86//31
f 22//31 20//31 75//31
f 50//31 48//31 89//31
f 67//31 6//31 66//31
f 78//31 28//31 77//31
f 56//31 54//31 92//31
f 70//31 12//31 69//31
f 81//31 34//31 80//31
f 100//31 99//31 98//31
f 100//31 103//31 101//31
f 98//31 108//31 107//31
f 106//31 105//31 104//31
f 106//31 98//31 107//31
f 110//31 109//31 108//31
f 112//31 111//31 110//31
f 114//31 113//31 112//31
f 98//31 110//31 108//31
f 118//31 117//31 116//31
f 120//31 119//31 118//31
f 120//31 118//31 121//31
f 124//31 123//31 122//31
f 126//31 125//31 124//31
f 128//31 127//31 126//31
f 98//31 97//31 128//31
f 98//31 103//31 100//31
f 81//16 80//16 113//16
f 103//31 102//31 101//31
f 114//31 112//31 110//31
f 115//31 114//31 122//31
f 121//31 118//31 115//31
f 126//31 124//31 122//31
f 98//31 128//31 126//31
f 98//31 104//31 103//31
f 98//31 106//31 104//31
f 122//31 121//31 115//31
f 122//31 114//31 126//31
f 118//31 116//31 115//31
f 98//31 114//31 110//31
f 70//5 69//5 102//5
f 90//25 89//25 122//25
f 68//3 67//3 100//3
f 79//14 78//14 111//14
f 88//23 87//23 120//23
f 66//1 65//1 98//1
f 77//12 76//12 109//12
f 65//32 96//32 97//32
f 86//21 85//21 118//21
f 75//10 74//10 107//10
f 95//30 94//30 127//30
f 84//19 83//19 116//19
f 73//8 72//8 105//8
f 93//28 92//28 125//28
f 82//17 81//17 114//17
f 71//6 70//6 103//6
f 91//26 90//26 123//26
f 69//4 68//4 101//4
f 80//15 79//15 112//15
f 89//24 88//24 121//24
f 67//2 66//2 99//2
f 78//13 77//13 110//13
f 87//22 86//22 119//22
f 76//11 75//11 108//11
f 96//33 95//33 128//33
f 85//20 84//20 117//20
f 106//9 74//9 105//9
f 94//29 93//29 126//29
f 83//18 82//18 115//18
f 72//7 71//7 104//7
